<svg width="30" height="31" viewBox="0 0 30 31" fill="none" xmlns="http://www.w3.org/2000/svg">
<path d="M1.02197 12.5762L3.63178 11.7062C3.80922 11.1667 4.02474 10.6404 4.27673 10.1313L3.00182 7.68652C2.86305 7.40531 2.8159 7.08767 2.86702 6.77827C2.91814 6.46887 3.06495 6.18328 3.2868 5.96164L5.46165 3.8318C5.678 3.6025 5.9611 3.44721 6.27074 3.38797C6.58038 3.32874 6.90081 3.36858 7.18652 3.50182L9.63134 4.73173C10.1404 4.47975 10.6667 4.26422 11.2062 4.08678L12.0012 1.52197C12.1055 1.21152 12.3086 0.94376 12.5795 0.759592C12.8503 0.575424 13.174 0.484968 13.5011 0.50204H16.5008C16.8153 0.501228 17.122 0.599261 17.3777 0.782282C17.6334 0.965304 17.8251 1.22406 17.9257 1.52197L18.7957 4.13178C19.3352 4.30922 19.8615 4.52474 20.3706 4.77673L22.8154 3.50182C23.0966 3.36305 23.4142 3.3159 23.7236 3.36702C24.033 3.41814 24.3186 3.56495 24.5403 3.7868L26.6701 5.96164C26.8994 6.178 27.0547 6.4611 27.1139 6.77074C27.1732 7.08038 27.1333 7.40081 27.0001 7.68652L25.7702 10.1313C26.0222 10.6404 26.2377 11.1667 26.4151 11.7062L29.0249 12.5762C29.3144 12.6843 29.5635 12.8792 29.738 13.1343C29.9125 13.3893 30.004 13.6921 29.9999 14.0011V17.0008C30.0007 17.3153 29.9026 17.622 29.7196 17.8777C29.5366 18.1334 29.2779 18.3251 28.9799 18.4257L26.3701 19.2957C26.1927 19.8352 25.9772 20.3615 25.7252 20.8706L27.0001 23.3154C27.1389 23.5966 27.186 23.9142 27.1349 24.2236C27.0838 24.533 26.937 24.8186 26.7151 25.0403L24.5853 27.1701C24.3657 27.4092 24.0745 27.5707 23.7553 27.6302C23.4362 27.6897 23.1064 27.644 22.8154 27.5001L20.3706 26.2702C19.8615 26.5222 19.3352 26.7377 18.7957 26.9151L17.9257 29.5249C17.8176 29.8144 17.6227 30.0635 17.3676 30.238C17.1126 30.4125 16.8099 30.504 16.5008 30.4999H13.5011C13.1866 30.5007 12.8799 30.4026 12.6242 30.2196C12.3685 30.0366 12.1768 29.7779 12.0762 29.4799L11.2062 26.8701C10.6667 26.6927 10.1404 26.4772 9.63134 26.2252L7.18652 27.4551C6.90531 27.5939 6.58767 27.641 6.27827 27.5899C5.96887 27.5388 5.68328 27.392 5.46165 27.1701L3.3318 25.0403C3.1025 24.8239 2.94721 24.5408 2.88798 24.2312C2.82874 23.9215 2.86858 23.6011 3.00182 23.3154L4.23173 20.8706C3.97975 20.3615 3.76422 19.8352 3.58678 19.2957L1.02197 18.5007C0.711517 18.3964 0.443762 18.1933 0.259594 17.9224C0.0754261 17.6516 -0.0150318 17.3279 0.00204086 17.0008V14.0011C0.00122833 13.6866 0.0992622 13.3799 0.282284 13.1242C0.465303 12.8685 0.724056 12.6768 1.02197 12.5762ZM15.001 21.5005C16.1876 21.5005 17.3475 21.1487 18.3341 20.4894C19.3208 19.8302 20.0897 18.8932 20.5438 17.7969C20.9979 16.7006 21.1167 15.4943 20.8852 14.3305C20.6537 13.1667 20.0823 12.0977 19.2433 11.2586C18.4042 10.4196 17.3352 9.84816 16.1714 9.61667C15.0076 9.38517 13.8013 9.50398 12.705 9.95808C11.6087 10.4122 10.6717 11.1812 10.0125 12.1678C9.35326 13.1544 9.00139 14.3144 9.00139 15.501C9.00139 17.0921 9.63348 18.6182 10.7586 19.7433C11.8838 20.8684 13.4098 21.5005 15.001 21.5005Z" fill="url(#paint0_linear_91_322)"/>
<defs>
<linearGradient id="paint0_linear_91_322" x1="15" y1="0.5" x2="15" y2="30.5" gradientUnits="userSpaceOnUse">
<stop stop-color="#F9F8FF"/>
<stop offset="1" stop-color="white"/>
</linearGradient>
</defs>
</svg>
