<svg width="504" height="496" viewBox="0 0 504 496" fill="none" xmlns="http://www.w3.org/2000/svg">
<path d="M92.7656 209.734H107.491C119.503 209.734 129.578 199.369 129.578 187.066C129.578 180.866 126.962 175.247 122.312 171.081L112.819 161.781C103.422 152.481 103.422 137.272 112.819 127.972L134.422 106.562C138.684 102.3 144.981 99.7812 151.375 99.7812C157.769 99.7812 163.969 102.3 168.328 106.562L177.434 115.669C181.794 120.512 187.606 123.128 193.903 123.128C206.303 123.128 216.669 113.053 216.669 101.137V86.3156C216.669 73.2375 227.228 62 240.403 62H269.853C283.028 62 293.491 73.1406 293.491 86.3156V101.041C293.491 112.956 303.856 123.031 316.256 123.031C322.456 123.031 328.172 120.416 332.337 115.862L341.734 106.562C345.997 102.203 352.294 99.7812 358.687 99.7812C365.081 99.7812 371.281 102.3 375.641 106.562L397.437 127.875C406.737 137.175 406.737 152.384 397.437 161.587L388.331 170.694C383.487 175.053 380.775 180.866 380.775 187.066C380.775 199.466 390.85 209.734 402.862 209.734H417.587C430.859 209.734 442 220.1 442 233.275V248V262.725C442 275.803 430.859 286.266 417.587 286.266H402.862C390.85 286.266 380.775 296.631 380.775 308.934C380.775 315.134 383.487 320.947 388.331 325.306L397.437 334.316C406.737 343.616 406.737 358.825 397.437 368.028L375.834 389.534C371.572 393.894 365.275 396.316 358.881 396.316C352.487 396.316 346.287 393.797 341.928 389.534L332.531 380.234C328.462 375.681 322.65 373.066 316.45 373.066C304.05 373.066 293.684 383.141 293.684 395.056V409.781C293.684 422.859 283.222 434.097 269.95 434.097H240.5C227.325 434.097 216.862 422.956 216.862 409.781V395.056C216.862 383.141 206.497 373.066 194.097 373.066C187.897 373.066 182.084 375.778 177.628 380.525L168.522 389.631C164.162 393.894 157.962 396.412 151.569 396.412C145.175 396.412 138.975 393.894 134.616 389.631L113.012 368.125C103.712 358.825 103.712 343.616 113.012 334.316L122.506 325.016C127.156 320.85 129.772 315.134 129.772 309.031C129.772 296.631 119.697 286.362 107.684 286.362H92.9594C79.7844 286.362 70.3875 275.997 70.3875 262.822V248V233.275C70.1937 220.1 79.5906 209.734 92.7656 209.734ZM177.725 248C177.725 290.722 212.309 325.5 255.225 325.5C298.141 325.5 332.725 290.722 332.725 248C332.725 205.278 298.141 170.5 255.225 170.5C212.309 170.5 177.725 205.278 177.725 248Z" fill="#FFEDA7"/>
<path d="M9.47135 89.0544L12.7251 89.3519C15.3795 89.5945 17.8149 87.5105 18.063 84.7954C18.1881 83.4271 17.7235 82.1344 16.78 81.1211L14.8698 78.877C12.981 76.6349 13.2878 73.2784 15.5518 71.4159L20.7573 67.1276C21.7851 66.273 23.2273 65.8443 24.6402 65.9735C26.053 66.1026 27.3722 66.7837 28.2495 67.8124L30.078 70.0059C30.9436 71.1629 32.1752 71.8575 33.5666 71.9847C36.3066 72.2352 38.8003 70.2212 39.0407 67.5916L39.3397 64.3206C39.6035 61.4345 42.1635 59.1679 45.0747 59.434L51.5823 60.0288C54.4935 60.2949 56.5807 62.9648 56.3149 65.8723L56.0179 69.1219C55.7775 71.7514 57.8648 74.1842 60.6048 74.4346C61.9748 74.5599 63.2905 74.0981 64.3028 73.1774L66.5669 71.3149C67.5967 70.4389 69.0369 70.0316 70.4498 70.1608C71.8626 70.2899 73.1818 70.971 74.0591 71.9997L78.4456 77.1433C80.313 79.3835 80.0062 82.7399 77.7655 84.583L75.5697 86.4087C74.4114 87.2729 73.6948 88.5008 73.5697 89.8691C73.3196 92.6055 75.3387 95.0752 77.9931 95.3178L81.2468 95.6152C84.1795 95.8833 86.4322 98.3958 86.1664 101.303L85.8694 104.553L85.5723 107.802C85.3085 110.689 82.6357 112.772 79.7031 112.504L76.4493 112.207C73.7949 111.964 71.3596 114.048 71.1114 116.763C70.9863 118.132 71.4684 119.469 72.4508 120.529L74.2813 122.701C76.1487 124.941 75.8419 128.298 73.6012 130.141L68.3938 134.451C67.364 135.327 65.9237 135.734 64.5109 135.605C63.0981 135.476 61.7789 134.795 60.9016 133.766L59.0128 131.524C58.2055 130.437 56.9739 129.742 55.6039 129.617C52.8639 129.366 50.3702 131.38 50.1298 134.01L49.8328 137.26C49.569 140.146 47.0304 142.414 44.0977 142.146L37.5902 141.551C34.6789 141.285 32.5918 138.615 32.8575 135.708L33.1546 132.458C33.3949 129.829 31.3077 127.396 28.5677 127.146C27.1977 127.02 25.8586 127.502 24.7781 128.459L22.5822 130.285C21.533 131.137 20.1122 131.568 18.6993 131.439C17.2865 131.31 15.9673 130.629 15.09 129.6L10.7502 124.417C8.88281 122.177 9.18961 118.821 11.4322 116.956L13.7177 115.096C14.8292 114.27 15.5225 113.062 15.6456 111.715C15.8957 108.979 13.8766 106.509 11.2222 106.266L7.96843 105.969C5.05716 105.703 3.18984 103.225 3.4556 100.318L3.75459 97.047L4.05162 93.7975C4.27457 90.8861 6.56009 88.7883 9.47135 89.0544ZM27.4728 99.215C26.611 108.643 33.5516 117.016 43.0346 117.883C52.5176 118.75 60.8612 111.774 61.723 102.346C62.5848 92.9177 55.6443 84.5443 46.1612 83.6775C36.6782 82.8106 28.3346 89.787 27.4728 99.215Z" fill="#C4B2ED"/>
<path d="M406.471 420.054L409.725 420.352C412.38 420.594 414.815 418.51 415.063 415.795C415.188 414.427 414.723 413.134 413.78 412.121L411.87 409.877C409.981 407.635 410.288 404.278 412.552 402.416L417.757 398.128C418.785 397.273 420.227 396.844 421.64 396.973C423.053 397.103 424.372 397.784 425.249 398.812L427.078 401.006C427.944 402.163 429.175 402.858 430.567 402.985C433.307 403.235 435.8 401.221 436.041 398.592L436.34 395.321C436.603 392.435 439.163 390.168 442.075 390.434L448.582 391.029C451.494 391.295 453.581 393.965 453.315 396.872L453.018 400.122C452.778 402.751 454.865 405.184 457.605 405.435C458.975 405.56 460.291 405.098 461.303 404.177L463.567 402.315C464.597 401.439 466.037 401.032 467.45 401.161C468.863 401.29 470.182 401.971 471.059 403L475.446 408.143C477.313 410.383 477.006 413.74 474.766 415.583L472.57 417.409C471.411 418.273 470.695 419.501 470.57 420.869C470.32 423.606 472.339 426.075 474.993 426.318L478.247 426.615C481.18 426.883 483.432 429.396 483.166 432.303L482.869 435.553L482.572 438.802C482.309 441.689 479.636 443.772 476.703 443.504L473.449 443.207C470.795 442.964 468.36 445.048 468.111 447.763C467.986 449.132 468.468 450.469 469.451 451.529L471.281 453.701C473.149 455.941 472.842 459.298 470.601 461.141L465.394 465.451C464.364 466.327 462.924 466.734 461.511 466.605C460.098 466.476 458.779 465.795 457.902 464.766L456.013 462.524C455.206 461.437 453.974 460.742 452.604 460.617C449.864 460.366 447.37 462.38 447.13 465.01L446.833 468.26C446.569 471.146 444.03 473.414 441.098 473.146L434.59 472.551C431.679 472.285 429.592 469.615 429.858 466.708L430.155 463.458C430.395 460.829 428.308 458.396 425.568 458.146C424.198 458.02 422.859 458.502 421.778 459.459L419.582 461.285C418.533 462.137 417.112 462.568 415.699 462.439C414.287 462.31 412.967 461.629 412.09 460.6L407.75 455.417C405.883 453.177 406.19 449.821 408.432 447.956L410.718 446.096C411.829 445.27 412.522 444.062 412.646 442.715C412.896 439.979 410.877 437.509 408.222 437.266L404.968 436.969C402.057 436.703 400.19 434.225 400.456 431.318L400.755 428.047L401.052 424.797C401.275 421.886 403.56 419.788 406.471 420.054ZM424.473 430.215C423.611 439.643 430.552 448.016 440.035 448.883C449.518 449.75 457.861 442.774 458.723 433.346C459.585 423.918 452.644 415.544 443.161 414.677C433.678 413.811 425.335 420.787 424.473 430.215Z" fill="#C4B2ED"/>
</svg>
