<svg width="562" height="492" viewBox="0 0 562 492" fill="none" xmlns="http://www.w3.org/2000/svg">
<path d="M423.4 244.424L418.501 216.949L442.325 178.862L393.713 118.291L348.617 131.462L328.477 120.933L312.064 81H235.02L218.607 120.891L198.466 131.462L153.371 118.291L104.758 178.862L128.583 216.949L123.684 244.424L86 267.789L101.074 340.021L146.713 348.368L160.866 367.915L160.364 411.204L226.939 443L259.012 415.357H288.071L320.145 443L386.678 411.204L386.176 367.915L400.328 348.326L445.968 339.979L461 267.747L423.4 244.424ZM273.542 330.079C235.732 330.079 204.998 299.249 204.998 261.413C204.998 223.535 235.732 192.746 273.542 192.746C311.352 192.746 342.085 223.577 342.085 261.413C342.085 299.249 311.352 330.079 273.542 330.079Z" fill="#FFEDA7"/>
<path d="M127.69 61.8484L125.836 51.4504L134.852 37.036L116.455 14.1127L99.3883 19.0975L91.7662 15.1129L85.5544 0H56.3971L50.1854 15.097L42.5633 19.0975L25.4968 14.1127L7.09916 37.036L16.1157 51.4504L14.2617 61.8484L0 70.6907L5.70469 98.0272L22.9772 101.186L28.3333 108.584L28.1431 124.967L53.3388 137L65.4771 126.538H76.4745L88.6128 137L113.793 124.967L113.602 108.584L118.959 101.17L136.231 98.0114L141.92 70.6749L127.69 61.8484ZM70.9758 94.2649C56.6665 94.2649 45.0353 82.5969 45.0353 68.2778C45.0353 53.9428 56.6665 42.2906 70.9758 42.2906C85.285 42.2906 96.9163 53.9586 96.9163 68.2778C96.9163 82.5969 85.285 94.2649 70.9758 94.2649Z" fill="#C4B2ED"/>
<path d="M547.69 416.848L545.836 406.45L554.852 392.036L536.455 369.113L519.388 374.097L511.766 370.113L505.554 355H476.397L470.185 370.097L462.563 374.097L445.497 369.113L427.099 392.036L436.116 406.45L434.262 416.848L420 425.691L425.705 453.027L442.977 456.186L448.333 463.584L448.143 479.967L473.339 492L485.477 481.538H496.474L508.613 492L533.793 479.967L533.602 463.584L538.959 456.17L556.231 453.011L561.92 425.675L547.69 416.848ZM490.976 449.265C476.667 449.265 465.035 437.597 465.035 423.278C465.035 408.943 476.667 397.291 490.976 397.291C505.285 397.291 516.916 408.959 516.916 423.278C516.916 437.597 505.285 449.265 490.976 449.265Z" fill="#C4B2ED"/>
</svg>
