<svg width="77" height="77" viewBox="0 0 77 77" fill="none" xmlns="http://www.w3.org/2000/svg">
<path d="M73.8383 31.1063L67.2408 28.9071C66.7923 27.5431 66.2474 26.2127 65.6104 24.9258L68.8333 18.7454C69.1842 18.0345 69.3033 17.2315 69.1741 16.4494C69.0449 15.6673 68.6738 14.9453 68.1129 14.385L62.615 9.00084C62.0681 8.42119 61.3524 8.02862 60.5696 7.87887C59.7869 7.72913 58.9768 7.82983 58.2546 8.16668L52.0742 11.2758C50.7873 10.6388 49.4569 10.094 48.0929 9.64542L46.0833 3.16168C45.8195 2.37687 45.3061 1.7 44.6214 1.23443C43.9367 0.768855 43.1185 0.540186 42.2917 0.583343H34.7083C33.9134 0.581291 33.138 0.829114 32.4916 1.29178C31.8452 1.75446 31.3606 2.40857 31.1063 3.16168L28.9071 9.75918C27.5431 10.2077 26.2127 10.7526 24.9258 11.3896L18.7454 8.16668C18.0345 7.81585 17.2315 7.69668 16.4494 7.8259C15.6673 7.95513 14.9453 8.32625 14.385 8.88709L9.00084 14.385C8.42119 14.9319 8.02861 15.6476 7.87887 16.4304C7.72913 17.2131 7.82983 18.0232 8.16667 18.7454L11.2758 24.9258C10.6388 26.2127 10.094 27.5431 9.64542 28.9071L3.04792 31.1063C2.31608 31.3796 1.68653 31.8724 1.24538 32.5171C0.804234 33.1619 0.573013 33.9272 0.583339 34.7083V42.2917C0.581287 43.0866 0.829111 43.862 1.29178 44.5084C1.75445 45.1548 2.40857 45.6394 3.16167 45.8938L9.75917 48.0929C10.2077 49.4569 10.7526 50.7873 11.3896 52.0742L8.16667 58.2546C7.81585 58.9655 7.69667 59.7685 7.8259 60.5506C7.95512 61.3328 8.32625 62.0547 8.88709 62.615L14.2713 67.9992C14.8263 68.6037 15.5625 69.0118 16.3693 69.1622C17.176 69.3126 18.0098 69.1972 18.7454 68.8333L24.9258 65.7242C26.2127 66.3612 27.5431 66.906 28.9071 67.3546L31.1063 73.9521C31.3796 74.6839 31.8724 75.3135 32.5171 75.7546C33.1619 76.1958 33.9272 76.427 34.7083 76.4167H42.2917C43.0866 76.4187 43.862 76.1709 44.5084 75.7082C45.1548 75.2456 45.6394 74.5914 45.8938 73.8383L48.0929 67.2408C49.4569 66.7923 50.7873 66.2474 52.0742 65.6104L58.2546 68.7196C58.9655 69.0704 59.7685 69.1896 60.5506 69.0604C61.3328 68.9311 62.0547 68.56 62.615 67.9992L67.9992 62.615C68.5788 62.0681 68.9714 61.3524 69.1211 60.5696C69.2709 59.7869 69.1702 58.9768 68.8333 58.2546L65.7242 52.0742C66.3612 50.7873 66.906 49.4569 67.3546 48.0929L73.8383 46.0833C74.6231 45.8195 75.3 45.3061 75.7656 44.6214C76.2312 43.9367 76.4598 43.1185 76.4167 42.2917V34.7083C76.4187 33.9134 76.1709 33.138 75.7082 32.4916C75.2456 31.8452 74.5914 31.3606 73.8383 31.1063ZM38.5 53.6667C35.5003 53.6667 32.568 52.7772 30.0739 51.1106C27.5797 49.4441 25.6358 47.0754 24.4878 44.304C23.3399 41.5327 23.0396 38.4832 23.6248 35.5411C24.21 32.5991 25.6545 29.8967 27.7756 27.7756C29.8966 25.6545 32.5991 24.21 35.5411 23.6248C38.4832 23.0396 41.5327 23.3399 44.304 24.4878C47.0754 25.6358 49.4441 27.5797 51.1106 30.0739C52.7772 32.568 53.6667 35.5003 53.6667 38.5C53.6667 42.5225 52.0688 46.3802 49.2245 49.2245C46.3802 52.0688 42.5225 53.6667 38.5 53.6667Z" fill="#FFEDA7"/>
</svg>
