<svg width="19" height="15" viewBox="0 0 19 15" fill="none" xmlns="http://www.w3.org/2000/svg">
<path d="M5.98262 0.770996L0.693359 6.30811C0.376953 6.61397 0.21875 7.03057 0.21875 7.48936C0.21875 7.94814 0.376953 8.35947 0.693359 8.67061L5.98262 14.2288C6.61016 14.888 7.6332 14.888 8.26074 14.2288C8.88828 13.5696 8.88828 12.5044 8.26074 11.8452L5.71894 9.1874H17.1623C18.0588 9.1874 18.7812 8.4333 18.7812 7.4999C18.7812 6.5665 18.0588 5.8124 17.1676 5.8124H5.72422L8.26602 3.15459C8.89355 2.49541 8.89355 1.43018 8.26602 0.770996C7.6332 0.111816 6.61543 0.111816 5.98262 0.770996Z" fill="white"/>
</svg>
