<svg width="19" height="15" viewBox="0 0 19 15" fill="none" xmlns="http://www.w3.org/2000/svg">
<path d="M13.0174 0.770996L18.3066 6.30811C18.623 6.61397 18.7812 7.03057 18.7812 7.48936C18.7812 7.94814 18.623 8.35947 18.3066 8.67061L13.0174 14.2288C12.3898 14.888 11.3668 14.888 10.7393 14.2288C10.1117 13.5696 10.1117 12.5044 10.7393 11.8452L13.2811 9.1874H1.8377C0.941211 9.1874 0.21875 8.4333 0.21875 7.4999C0.21875 6.5665 0.941211 5.8124 1.83242 5.8124H13.2758L10.734 3.15459C10.1064 2.49541 10.1064 1.43018 10.734 0.770996C11.3668 0.111816 12.3846 0.111816 13.0174 0.770996Z" fill="white"/>
</svg>
