<svg width="29" height="29" viewBox="0 0 29 29" fill="none" xmlns="http://www.w3.org/2000/svg">
<g clip-path="url(#clip0_810_78)">
<path d="M12.0833 7.25V9.66667H6.04167V22.9583H19.3333V16.9167H21.75V24.1667C21.75 24.4871 21.6227 24.7945 21.3961 25.0211C21.1695 25.2477 20.8621 25.375 20.5417 25.375H4.83333C4.51286 25.375 4.20552 25.2477 3.97891 25.0211C3.75231 24.7945 3.625 24.4871 3.625 24.1667V8.45833C3.625 8.13786 3.75231 7.83052 3.97891 7.60391C4.20552 7.37731 4.51286 7.25 4.83333 7.25H12.0833ZM25.375 3.625V13.2917H22.9583V7.74904L13.5418 17.1668L11.8332 15.4582L21.2485 6.04167H15.7083V3.625H25.375Z" fill="white"/>
</g>
<defs>
<clipPath id="clip0_810_78">
<rect width="29" height="29" fill="white"/>
</clipPath>
</defs>
</svg>
