<svg width="22" height="17" viewBox="0 0 22 17" fill="none" xmlns="http://www.w3.org/2000/svg">
<path d="M18.2292 1.95519C18.2233 1.94406 18.2136 1.93534 18.2017 1.93058C16.8317 1.31565 15.3859 0.877159 13.9005 0.626076C13.887 0.623621 13.8731 0.625392 13.8607 0.631135C13.8483 0.636879 13.838 0.646303 13.8314 0.658068C13.6345 1.00762 13.4558 1.36667 13.2959 1.73385C11.6948 1.49608 10.0661 1.49608 8.465 1.73385C8.30406 1.36574 8.12248 1.0066 7.92109 0.658068C7.91418 0.646559 7.90389 0.637352 7.89156 0.631645C7.87922 0.625939 7.86542 0.623998 7.85194 0.626076C6.36642 0.876632 4.92053 1.31516 3.55066 1.93062C3.53893 1.93548 3.52904 1.94379 3.52234 1.95438C0.782859 5.9565 0.0324118 9.86022 0.400556 13.7156C0.401591 13.725 0.404559 13.7342 0.409282 13.7425C0.414005 13.7508 0.420386 13.7581 0.428048 13.7639C2.02322 14.9194 3.80744 15.8013 5.70457 16.3721C5.71793 16.3761 5.7322 16.3759 5.74545 16.3716C5.75871 16.3674 5.77031 16.3593 5.77871 16.3484C6.18617 15.806 6.54721 15.2317 6.85816 14.6313C6.86244 14.623 6.86488 14.614 6.86532 14.6048C6.86577 14.5955 6.86421 14.5863 6.86075 14.5777C6.85729 14.5691 6.85201 14.5614 6.84525 14.5549C6.83849 14.5484 6.83041 14.5435 6.82154 14.5403C6.25221 14.3272 5.70102 14.0703 5.17316 13.772C5.16357 13.7665 5.15552 13.7588 5.14971 13.7495C5.14391 13.7402 5.14053 13.7297 5.13987 13.7188C5.13921 13.7079 5.1413 13.6971 5.14595 13.6872C5.15059 13.6773 5.15766 13.6687 5.16651 13.6621C5.27727 13.5809 5.38811 13.4965 5.49387 13.4112C5.50327 13.4036 5.51464 13.3988 5.5267 13.3972C5.53876 13.3956 5.55104 13.3973 5.56215 13.4022C9.02038 14.9462 12.7644 14.9462 16.1817 13.4022C16.1928 13.397 16.2052 13.3951 16.2175 13.3965C16.2297 13.398 16.2413 13.4028 16.2508 13.4104C16.3566 13.4957 16.4674 13.5809 16.579 13.6621C16.5879 13.6686 16.595 13.6772 16.5998 13.687C16.6045 13.6969 16.6066 13.7077 16.6061 13.7186C16.6055 13.7295 16.6022 13.74 16.5965 13.7493C16.5907 13.7586 16.5827 13.7664 16.5732 13.772C16.0465 14.0728 15.4948 14.3295 14.924 14.5395C14.9151 14.5428 14.9071 14.5479 14.9004 14.5544C14.8937 14.561 14.8884 14.5688 14.8851 14.5775C14.8817 14.5862 14.8802 14.5954 14.8807 14.6047C14.8812 14.614 14.8837 14.623 14.8881 14.6313C15.2042 15.2284 15.5647 15.8019 15.9667 16.3474C15.9749 16.3586 15.9864 16.367 15.9997 16.3714C16.013 16.3758 16.0274 16.3761 16.0408 16.372C17.9414 15.8031 19.7287 14.9211 21.3259 13.7639C21.3337 13.7584 21.3401 13.7513 21.3449 13.7431C21.3496 13.7349 21.3525 13.7258 21.3534 13.7164C21.7941 9.25918 20.6155 5.38746 18.2292 1.95519ZM7.37462 11.3681C6.33344 11.3681 5.47554 10.4334 5.47554 9.28545C5.47554 8.13753 6.3168 7.20276 7.37462 7.20276C8.44071 7.20276 9.29031 8.14565 9.27367 9.28538C9.27367 10.4334 8.43237 11.3681 7.37462 11.3681ZM14.3961 11.3681C13.3549 11.3681 12.497 10.4334 12.497 9.28545C12.497 8.13753 13.3383 7.20276 14.3961 7.20276C15.4622 7.20276 16.3118 8.14565 16.2952 9.28538C16.2952 10.4334 15.4622 11.3681 14.3961 11.3681Z" fill="white"/>
</svg>
