<svg width="17" height="17" viewBox="0 0 17 17" fill="none" xmlns="http://www.w3.org/2000/svg">
<path d="M8.31036 4.17725C5.96468 4.17725 4.02112 6.0873 4.02112 8.46649C4.02112 10.8457 5.93117 12.7557 8.31036 12.7557C10.6895 12.7557 12.5996 10.8122 12.5996 8.46649C12.5996 6.12081 10.656 4.17725 8.31036 4.17725ZM8.31036 11.2143C6.80242 11.2143 5.56256 9.97442 5.56256 8.46649C5.56256 6.95855 6.80242 5.71869 8.31036 5.71869C9.8183 5.71869 11.0582 6.95855 11.0582 8.46649C11.0582 9.97442 9.8183 11.2143 8.31036 11.2143Z" fill="white"/>
<path d="M12.7672 5.04848C13.3039 5.04848 13.739 4.6134 13.739 4.0767C13.739 3.54 13.3039 3.10492 12.7672 3.10492C12.2305 3.10492 11.7954 3.54 11.7954 4.0767C11.7954 4.6134 12.2305 5.04848 12.7672 5.04848Z" fill="white"/>
<path d="M15.2804 1.56347C14.4092 0.658711 13.1693 0.189575 11.7619 0.189575H4.85891C1.94356 0.189575 0 2.13314 0 5.04848V11.918C0 13.3589 0.469136 14.5987 1.40741 15.5035C2.31217 16.3748 3.51852 16.8104 4.89242 16.8104H11.7284C13.1693 16.8104 14.3757 16.3412 15.2469 15.5035C16.1517 14.6323 16.6208 13.3924 16.6208 11.9515V5.04848C16.6208 3.64107 16.1517 2.43472 15.2804 1.56347ZM15.1464 11.9515C15.1464 12.9903 14.7778 13.828 14.1746 14.3977C13.5714 14.9674 12.7337 15.2689 11.7284 15.2689H4.89242C3.88713 15.2689 3.04938 14.9674 2.44621 14.3977C1.84303 13.7945 1.54145 12.9568 1.54145 11.918V5.04848C1.54145 4.04319 1.84303 3.20545 2.44621 2.60227C3.01587 2.03261 3.88713 1.73102 4.89242 1.73102H11.7954C12.8007 1.73102 13.6384 2.03261 14.2416 2.63578C14.8113 3.23896 15.1464 4.0767 15.1464 5.04848V11.9515Z" fill="white"/>
</svg>
