<svg width="17" height="17" viewBox="0 0 17 17" fill="none" xmlns="http://www.w3.org/2000/svg">
<path d="M15.1531 0.604126H1.78004C1.13996 0.604126 0.62085 1.11086 0.62085 1.73538V15.265C0.62085 15.8892 1.13996 16.3959 1.78004 16.3959H15.1531C15.7942 16.3959 16.3133 15.8889 16.3133 15.265V1.73538C16.3133 1.11054 15.7938 0.604126 15.1531 0.604126ZM5.37731 13.8239H3.00718V6.69313H5.37731V13.8239ZM4.1924 5.71904H4.17653C3.38151 5.71904 2.86716 5.17136 2.86716 4.48714C2.86716 3.78769 3.39738 3.25525 4.20796 3.25525C5.01885 3.25525 5.51764 3.78769 5.53352 4.48714C5.53352 5.17136 5.01854 5.71904 4.1924 5.71904ZM13.9241 13.8239H11.5539V10.0081C11.5539 9.04993 11.211 8.39588 10.3535 8.39588C9.6988 8.39588 9.30891 8.83689 9.13714 9.26297C9.07459 9.41506 9.05935 9.62778 9.05935 9.84114V13.8235H6.68922C6.68922 13.8235 6.72033 7.36115 6.68922 6.69281H9.05935V7.70215C9.37431 7.21637 9.93756 6.52454 11.1958 6.52454C12.755 6.52454 13.9244 7.54403 13.9244 9.73446L13.9241 13.8239Z" fill="white"/>
</svg>
