<svg width="22" height="17" viewBox="0 0 22 17" fill="none" xmlns="http://www.w3.org/2000/svg">
<path d="M21.4443 1.99574C21.4443 0.893521 20.5259 0 19.3931 0H2.49562C1.36272 0 0.444336 0.893521 0.444336 1.99574V15.0043C0.444336 16.1065 1.36272 17 2.49562 17H19.3931C20.5259 17 21.4443 16.1065 21.4443 15.0043V1.99574ZM2.50661 1.59488H19.4091C19.6354 1.59488 19.8175 1.77042 19.8175 1.99053V2.00785L11.2476 10.3466C11.143 10.4483 11.0214 10.4635 10.958 10.4635C10.8945 10.4635 10.7725 10.4483 10.668 10.3466L2.09602 2.00671V1.99053C2.09602 1.77042 2.28039 1.59488 2.50661 1.59488ZM19.4091 15.4051H2.50661C2.28039 15.4051 2.09602 15.2229 2.09602 15.0028V4.26463L9.50782 11.4756C9.89526 11.8526 10.4105 12.0601 10.9584 12.0601C11.5063 12.0601 12.0205 11.8525 12.4079 11.4756L19.8175 4.26576V15.0028C19.8175 15.2229 19.6354 15.4051 19.4091 15.4051Z" fill="white"/>
</svg>
